<svg width="31" height="31" viewBox="0 0 31 31" fill="none" xmlns="http://www.w3.org/2000/svg">
<rect width="30" height="30" rx="15" transform="matrix(-1 0 0 1 30 0)" fill="#E6EEFF"/>
<path d="M18.7295 9.68737C18.8991 9.51775 19.1005 9.38319 19.3221 9.29139C19.5437 9.19959 19.7813 9.15234 20.0212 9.15234C20.261 9.15234 20.4986 9.19959 20.7202 9.29139C20.9418 9.38319 21.1432 9.51775 21.3128 9.68737C21.4824 9.85699 21.617 10.0584 21.7088 10.28C21.8006 10.5016 21.8479 10.7392 21.8479 10.979C21.8479 11.2189 21.8006 11.4565 21.7088 11.6781C21.617 11.8997 21.4824 12.1011 21.3128 12.2707L12.5941 20.9895L9.04199 21.9582L10.0107 18.4061L18.7295 9.68737Z" stroke="#0F2C64" stroke-width="1.29167" stroke-linecap="round" stroke-linejoin="round"/>
</svg>
