<svg width="20" height="20" viewBox="0 0 20 20" fill="none" xmlns="http://www.w3.org/2000/svg">
<path d="M2.875 5.25016H4.45833M4.45833 5.25016H17.125M4.45833 5.25016V16.3335C4.45833 16.7534 4.62515 17.1562 4.92208 17.4531C5.21901 17.75 5.62174 17.9168 6.04167 17.9168H13.9583C14.3783 17.9168 14.781 17.75 15.0779 17.4531C15.3749 17.1562 15.5417 16.7534 15.5417 16.3335V5.25016H4.45833ZM6.83333 5.25016V3.66683C6.83333 3.2469 7.00015 2.84418 7.29708 2.54724C7.59401 2.25031 7.99674 2.0835 8.41667 2.0835H11.5833C12.0033 2.0835 12.406 2.25031 12.7029 2.54724C12.9999 2.84418 13.1667 3.2469 13.1667 3.66683V5.25016M8.41667 9.2085V13.9585M11.5833 9.2085V13.9585" stroke="#0F2C64" stroke-width="1.58333" stroke-linecap="round" stroke-linejoin="round"/>
</svg>
